<?xml version="1.0" encoding="UTF-8" standalone="no"?>
<!DOCTYPE svg PUBLIC "-//W3C//DTD SVG 1.1//EN" "http://www.w3.org/Graphics/SVG/1.1/DTD/svg11.dtd">
<!-- Created with Vectornator (http://vectornator.io/) -->
<svg height="100%" stroke-miterlimit="10" style="fill-rule:nonzero;clip-rule:evenodd;stroke-linecap:round;stroke-linejoin:round;" version="1.1" viewBox="0 0 1000 1000" width="100%" xml:space="preserve" xmlns="http://www.w3.org/2000/svg" xmlns:vectornator="http://vectornator.io" xmlns:xlink="http://www.w3.org/1999/xlink">
<defs>
<linearGradient gradientTransform="matrix(1000 0 0 1000 0 0)" gradientUnits="userSpaceOnUse" id="LinearGradient" x1="0" x2="1" y1="0" y2="0">
<stop offset="0" stop-color="#ffd75f"/>
<stop offset="0.5" stop-color="#ff67c3"/>
<stop offset="1" stop-color="#6bd6e3"/>
</linearGradient>
</defs>
<g id="Untitled" vectornator:layerName="Untitled">
<path d="M500 0C223.858 0 0 223.858 0 500C0 776.142 223.858 1000 500 1000C776.142 1000 1000 776.142 1000 500C1000 223.858 776.142 0 500 0ZM500 50C748.528 50 950 251.472 950 500C950 748.528 748.528 950 500 950C251.472 950 50 748.528 50 500C50 251.472 251.472 50 500 50ZM747.5 252.5L407.188 407.188L252.5 747.5L592.812 592.812L747.5 252.5ZM634.344 365.656L550.375 550.375L449.625 449.625L634.344 365.656Z" fill="url(#LinearGradient)" fill-rule="nonzero" opacity="1" stroke="none" vectornator:layerName="Curve 1"/>
</g>
</svg>
