<?xml version="1.0" encoding="UTF-8" standalone="no"?>
<!DOCTYPE svg PUBLIC "-//W3C//DTD SVG 1.1//EN" "http://www.w3.org/Graphics/SVG/1.1/DTD/svg11.dtd">
<!-- Created with Vectornator (http://vectornator.io/) -->
<svg height="100%" stroke-miterlimit="10" style="fill-rule:nonzero;clip-rule:evenodd;stroke-linecap:round;stroke-linejoin:round;" version="1.1" viewBox="0 0 1000 1000" width="100%" xml:space="preserve" xmlns="http://www.w3.org/2000/svg" xmlns:vectornator="http://vectornator.io" xmlns:xlink="http://www.w3.org/1999/xlink">
<defs>
<linearGradient gradientTransform="matrix(1000 0 0 1000 0 -5.68434e-14)" gradientUnits="userSpaceOnUse" id="LinearGradient" x1="0" x2="1" y1="0" y2="0">
<stop offset="0" stop-color="#ffd75f"/>
<stop offset="0.5" stop-color="#ff67c3"/>
<stop offset="1" stop-color="#6bd6e3"/>
</linearGradient>
</defs>
<clipPath id="ArtboardFrame">
<rect height="1000" width="1000" x="0" y="0"/>
</clipPath>
<g clip-path="url(#ArtboardFrame)" id="Untitled" vectornator:layerName="Untitled">
<path d="M500-5.68434e-14C223.858-5.68434e-14 0 223.858 0 500C0 776.142 223.858 1000 500 1000C776.142 1000 1000 776.142 1000 500C1000 223.858 776.142-5.68434e-14 500-5.68434e-14ZM500 70C737.482 70 930 262.518 930 500C930 737.482 737.482 930 500 930C262.518 930 70 737.482 70 500C70 262.518 262.518 70 500 70ZM733.875 266.125L412.281 412.281L266.125 733.875L587.719 587.719L733.875 266.125ZM592.906 407.094L534.844 534.844L465.156 465.156L592.906 407.094Z" fill="url(#LinearGradient)" fill-rule="nonzero" opacity="1" stroke="none" vectornator:layerName="Curve 1"/>
</g>
</svg>
