<?xml version="1.0" encoding="UTF-8" standalone="no"?>
<!DOCTYPE svg PUBLIC "-//W3C//DTD SVG 1.1//EN" "http://www.w3.org/Graphics/SVG/1.1/DTD/svg11.dtd">
<!-- Created with Vectornator (http://vectornator.io/) -->
<svg height="100%" stroke-miterlimit="10" style="fill-rule:nonzero;clip-rule:evenodd;stroke-linecap:round;stroke-linejoin:round;" version="1.1" viewBox="0 0 1000 1000" width="100%" xml:space="preserve" xmlns="http://www.w3.org/2000/svg" xmlns:vectornator="http://vectornator.io" xmlns:xlink="http://www.w3.org/1999/xlink">
<defs>
<linearGradient gradientTransform="matrix(1000 0 0 1000 0 0)" gradientUnits="userSpaceOnUse" id="LinearGradient" x1="0" x2="1" y1="0" y2="0">
<stop offset="0" stop-color="#ffd75f"/>
<stop offset="0.5" stop-color="#ff67c3"/>
<stop offset="1" stop-color="#6bd6e3"/>
</linearGradient>
</defs>
<clipPath id="ArtboardFrame">
<rect height="1000" width="1000" x="0" y="0"/>
</clipPath>
<g clip-path="url(#ArtboardFrame)" id="Untitled" vectornator:layerName="Untitled">
<path d="M500 0C223.858 0 0 223.858 0 500C0 776.142 223.858 1000 500 1000C776.142 1000 1000 776.142 1000 500C1000 223.858 776.142 0 500 0ZM500 80C731.96 80 920 268.04 920 500C920 731.96 731.96 920 500 920C268.04 920 80 731.96 80 500C80 268.04 268.04 80 500 80ZM728.438 271.562L414.344 414.344L271.562 728.438L585.656 585.656L728.438 271.562ZM567.344 432.656L525.25 525.25L474.75 474.75L567.344 432.656Z" fill="url(#LinearGradient)" fill-rule="nonzero" opacity="1" stroke="#1e1c2d" stroke-linecap="butt" stroke-linejoin="round" stroke-width="3" vectornator:layerName="Curve 1"/>
</g>
</svg>
